<svg xmlns="http://www.w3.org/2000/svg" width="1200" height="700" viewBox="0 0 1200 700">
  <rect width="1200" height="700" fill="#0f172a"/>
  <rect x="48" y="56" width="1104" height="588" rx="24" fill="#111827" stroke="#1f2937" stroke-width="2"/>
  <rect x="88" y="116" width="220" height="20" rx="10" fill="#334155"/>
  <rect x="88" y="164" width="300" height="126" rx="14" fill="#1e293b"/>
  <rect x="88" y="318" width="132" height="42" rx="10" fill="#374151"/>
  <rect x="236" y="318" width="132" height="42" rx="10" fill="#374151"/>
  <circle cx="844" cy="220" r="88" fill="#1d4ed8"/>
  <circle cx="844" cy="220" r="54" fill="#93c5fd"/>
  <rect x="664" y="352" width="320" height="26" rx="13" fill="#475569"/>
  <rect x="664" y="398" width="264" height="18" rx="9" fill="#334155"/>
  <rect x="664" y="430" width="286" height="18" rx="9" fill="#334155"/>
  <rect x="664" y="462" width="210" height="18" rx="9" fill="#334155"/>
  <text x="86" y="84" font-family="Segoe UI, Microsoft YaHei, sans-serif" font-size="24" font-weight="700" fill="#e5e7eb">Dashboard Snapshot</text>
  <text x="662" y="148" font-family="Segoe UI, Microsoft YaHei, sans-serif" font-size="44" font-weight="700" fill="#f8fafc">Project Status</text>
  <text x="662" y="188" font-family="Segoe UI, Microsoft YaHei, sans-serif" font-size="24" fill="#94a3b8">Static placeholder for PDF preview rendering</text>
</svg>
